<svg width="1.67em" height="1em" viewBox="0 0 40 26" fill="none" xmlns="http://www.w3.org/2000/svg" font-size="24px"><path d="M14.5 6H38.5" stroke="#E03C31" stroke-width="2.5" stroke-linecap="round" stroke-linejoin="round"></path><path d="M14.5 11H38.5" stroke="#CCCCCC" stroke-width="2.5" stroke-linecap="round" stroke-linejoin="round"></path><path d="M14.5 16H38.5" stroke="#CCCCCC" stroke-width="2.5" stroke-linecap="round" stroke-linejoin="round"></path><path d="M14.5 21H38.5" stroke="#CCCCCC" stroke-width="2.5" stroke-linecap="round" stroke-linejoin="round"></path><path d="M5.71207 8.33663L8.13685 9.93433C8.4468 10.1386 8.83162 9.83481 8.73965 9.45854L8.03908 6.59241C8.01935 6.51259 8.02168 6.42859 8.04582 6.35008C8.06995 6.27157 8.1149 6.20174 8.1755 6.14862L10.3499 4.26645C10.6356 4.01914 10.4881 3.52601 10.1211 3.50123L7.28145 3.30957C7.20496 3.30389 7.1316 3.27572 7.06991 3.22836C7.00822 3.181 6.96074 3.11638 6.93299 3.04204L5.87393 0.268389C5.84515 0.189481 5.79396 0.121548 5.72717 0.0736107C5.66038 0.0256733 5.58115 0 5.5 0C5.41885 0 5.33962 0.0256733 5.27283 0.0736107C5.20604 0.121548 5.15485 0.189481 5.12607 0.268389L4.06701 3.04204C4.03926 3.11638 3.99178 3.181 3.93009 3.22836C3.8684 3.27572 3.79504 3.30389 3.71855 3.30957L0.878944 3.50123C0.511873 3.52601 0.364409 4.01914 0.650114 4.26645L2.8245 6.14862C2.8851 6.20174 2.93005 6.27157 2.95418 6.35008C2.97832 6.42859 2.98065 6.51259 2.96092 6.59241L2.31122 9.25042C2.20085 9.70195 2.66264 10.0664 3.03458 9.82137L5.28793 8.33663C5.35131 8.29468 5.42487 8.27239 5.5 8.27239C5.57513 8.27239 5.64869 8.29468 5.71207 8.33663Z" fill="#E03C31"></path></svg>