<svg width="1.67em" height="1em" viewBox="0 0 40 26" fill="none" xmlns="http://www.w3.org/2000/svg" font-size="24px"><path d="M14.5 6H38.5" stroke="#CCCCCC" stroke-width="2.5" stroke-linecap="round" stroke-linejoin="round"></path><path d="M14.5 11H38.5" stroke="#FCB40A" stroke-width="2.5" stroke-linecap="round" stroke-linejoin="round"></path><path d="M14.5 16H38.5" stroke="#CCCCCC" stroke-width="2.5" stroke-linecap="round" stroke-linejoin="round"></path><path d="M14.5 21H38.5" stroke="#CCCCCC" stroke-width="2.5" stroke-linecap="round" stroke-linejoin="round"></path><path d="M5.71207 14.3366L8.13685 15.9343C8.4468 16.1386 8.83162 15.8348 8.73965 15.4585L8.03908 12.5924C8.01935 12.5126 8.02168 12.4286 8.04582 12.3501C8.06995 12.2716 8.1149 12.2017 8.1755 12.1486L10.3499 10.2664C10.6356 10.0191 10.4881 9.52601 10.1211 9.50123L7.28145 9.30957C7.20496 9.30389 7.1316 9.27572 7.06991 9.22836C7.00822 9.181 6.96074 9.11638 6.93299 9.04204L5.87393 6.26839C5.84515 6.18948 5.79396 6.12155 5.72717 6.07361C5.66038 6.02567 5.58115 6 5.5 6C5.41885 6 5.33962 6.02567 5.27283 6.07361C5.20604 6.12155 5.15485 6.18948 5.12607 6.26839L4.06701 9.04204C4.03926 9.11638 3.99178 9.181 3.93009 9.22836C3.8684 9.27572 3.79504 9.30389 3.71855 9.30957L0.878944 9.50123C0.511873 9.52601 0.364409 10.0191 0.650114 10.2664L2.8245 12.1486C2.8851 12.2017 2.93005 12.2716 2.95418 12.3501C2.97832 12.4286 2.98065 12.5126 2.96092 12.5924L2.31122 15.2504C2.20085 15.702 2.66264 16.0664 3.03458 15.8214L5.28793 14.3366C5.35131 14.2947 5.42487 14.2724 5.5 14.2724C5.57513 14.2724 5.64869 14.2947 5.71207 14.3366Z" fill="#FCB40A"></path></svg>