<svg width="1.67em" height="1em" viewBox="0 0 40 26" fill="none" xmlns="http://www.w3.org/2000/svg" font-size="24px"><path d="M14.5 6H38.5" stroke="#CCCCCC" stroke-width="2.5" stroke-linecap="round" stroke-linejoin="round"></path><path d="M14.5 11H38.5" stroke="#CCCCCC" stroke-width="2.5" stroke-linecap="round" stroke-linejoin="round"></path><path d="M14.5 16H38.5" stroke="#009BA1" stroke-width="2.5" stroke-linecap="round" stroke-linejoin="round"></path><path d="M14.5 21H38.5" stroke="#CCCCCC" stroke-width="2.5" stroke-linecap="round" stroke-linejoin="round"></path><path d="M5.71207 19.3366L8.13685 20.9343C8.4468 21.1386 8.83162 20.8348 8.73965 20.4585L8.03908 17.5924C8.01935 17.5126 8.02168 17.4286 8.04582 17.3501C8.06995 17.2716 8.1149 17.2017 8.1755 17.1486L10.3499 15.2664C10.6356 15.0191 10.4881 14.526 10.1211 14.5012L7.28145 14.3096C7.20496 14.3039 7.1316 14.2757 7.06991 14.2284C7.00822 14.181 6.96074 14.1164 6.93299 14.042L5.87393 11.2684C5.84515 11.1895 5.79396 11.1215 5.72717 11.0736C5.66038 11.0257 5.58115 11 5.5 11C5.41885 11 5.33962 11.0257 5.27283 11.0736C5.20604 11.1215 5.15485 11.1895 5.12607 11.2684L4.06701 14.042C4.03926 14.1164 3.99178 14.181 3.93009 14.2284C3.8684 14.2757 3.79504 14.3039 3.71855 14.3096L0.878944 14.5012C0.511873 14.526 0.364409 15.0191 0.650114 15.2664L2.8245 17.1486C2.8851 17.2017 2.93005 17.2716 2.95418 17.3501C2.97832 17.4286 2.98065 17.5126 2.96092 17.5924L2.31122 20.2504C2.20085 20.702 2.66264 21.0664 3.03458 20.8214L5.28793 19.3366C5.35131 19.2947 5.42487 19.2724 5.5 19.2724C5.57513 19.2724 5.64869 19.2947 5.71207 19.3366Z" fill="#009BA1"></path></svg>